<svg width="146" height="76" viewBox="0 0 146 76" fill="none" xmlns="http://www.w3.org/2000/svg">
<path d="M33.24 14.084C32.424 13.868 31.572 13.76 30.684 13.76C29.796 13.76 29.076 13.988 28.524 14.444C27.996 14.876 27.732 15.5 27.732 16.316C27.732 17.108 27.936 17.732 28.344 18.188C28.752 18.644 29.556 19.04 30.756 19.376L33.96 20.312C35.688 20.816 37.056 21.608 38.064 22.688C39.096 23.744 39.612 25.304 39.612 27.368C39.612 29.816 38.724 31.748 36.948 33.164C35.196 34.58 33.012 35.288 30.396 35.288C28.956 35.288 27.468 35.108 25.932 34.748C24.42 34.364 23.16 33.836 22.152 33.164C22.152 33.02 22.152 32.744 22.152 32.336C22.152 31.928 22.236 31.232 22.404 30.248C22.572 29.264 22.812 28.46 23.124 27.836H26.544C26.928 28.58 27.156 29.576 27.228 30.824C28.068 31.184 29.04 31.364 30.144 31.364C31.272 31.364 32.196 31.1 32.916 30.572C33.636 30.044 33.996 29.288 33.996 28.304C33.996 27.848 33.96 27.476 33.888 27.188C33.816 26.876 33.588 26.552 33.204 26.216C32.844 25.856 32.316 25.568 31.62 25.352L27.912 24.272C24.144 23.192 22.26 20.792 22.26 17.072C22.26 14.888 23.052 13.148 24.636 11.852C26.22 10.532 28.284 9.872 30.828 9.872C33.396 9.872 35.904 10.448 38.352 11.6C38.352 11.744 38.352 12.02 38.352 12.428C38.352 12.836 38.268 13.532 38.1 14.516C37.932 15.5 37.692 16.304 37.38 16.928H33.96C33.552 16.352 33.312 15.404 33.24 14.084ZM47.8591 12.464V17H53.0071V20.024H47.8591V29.132C47.8591 29.9 47.9671 30.464 48.1831 30.824C48.3991 31.16 48.9151 31.328 49.7311 31.328C50.5471 31.328 51.4231 31.148 52.3591 30.788L53.4391 33.596C51.5911 34.532 49.6951 35 47.7511 35C45.8311 35 44.5231 34.592 43.8271 33.776C43.1551 32.936 42.8191 31.724 42.8191 30.14V20.024H41.1991L40.8031 17.828C41.1871 17.372 41.9791 16.916 43.1791 16.46C43.4671 14.492 44.1511 13.16 45.2311 12.464H47.8591ZM67.9856 33.488C66.3296 34.688 64.3736 35.288 62.1176 35.288C59.8856 35.288 58.3256 34.82 57.4376 33.884C56.5496 32.948 56.1056 31.424 56.1056 29.312V20.996C55.2656 20.708 54.6056 20.3 54.1256 19.772L54.4856 17C55.8296 16.688 57.0776 16.532 58.2296 16.532C59.3816 16.532 60.3536 16.568 61.1456 16.64V28.124C61.1456 29.42 61.3376 30.284 61.7216 30.716C62.1296 31.124 62.9216 31.328 64.0976 31.328C65.2736 31.328 66.3656 30.944 67.3736 30.176V20.996C66.5336 20.708 65.8736 20.3 65.3936 19.772L65.7536 17C67.0976 16.688 68.3456 16.532 69.4976 16.532C70.6496 16.532 71.6216 16.568 72.4136 16.64V30.68C73.2536 30.848 73.9136 31.052 74.3936 31.292V34.136C72.9536 34.904 71.1416 35.288 68.9576 35.288C68.3576 34.856 68.0336 34.256 67.9856 33.488ZM85.2257 9.44C86.5937 9.128 87.9017 8.972 89.1497 8.972C90.3977 8.972 91.4657 9.008 92.3537 9.08V30.68C93.0737 30.8 93.7337 31.004 94.3337 31.292V34.136C92.8937 34.904 91.0697 35.288 88.8617 35.288C88.6217 35.168 88.3817 34.952 88.1417 34.64C87.9257 34.328 87.8057 34.028 87.7817 33.74C87.2537 34.172 86.5697 34.544 85.7297 34.856C84.8897 35.144 84.0617 35.288 83.2457 35.288C80.6537 35.288 78.7697 34.592 77.5937 33.2C76.4417 31.784 75.8657 29.48 75.8657 26.288C75.8657 22.664 76.7537 20.12 78.5297 18.656C80.0897 17.36 82.0097 16.712 84.2897 16.712C85.2977 16.712 86.3057 16.832 87.3137 17.072V13.508C86.2097 13.196 85.3937 12.764 84.8657 12.212L85.2257 9.44ZM84.0017 31.616C85.3697 31.616 86.4737 31.208 87.3137 30.392V20.744C86.3297 20.504 85.2857 20.384 84.1817 20.384C83.0777 20.384 82.2737 20.876 81.7697 21.86C81.2897 22.82 81.0497 24.272 81.0497 26.216C81.0497 28.136 81.2897 29.516 81.7697 30.356C82.2497 31.196 82.9937 31.616 84.0017 31.616ZM96.2664 17C97.6104 16.688 98.8584 16.532 100.01 16.532C101.162 16.532 102.134 16.568 102.926 16.64V31.004C103.862 31.364 104.522 31.772 104.906 32.228L104.546 35H96.2664L95.9064 32.228C96.2424 31.772 96.9024 31.364 97.8864 31.004V20.996C97.0464 20.708 96.3864 20.3 95.9064 19.772L96.2664 17ZM100.334 14.516C98.3424 14.516 97.3464 13.616 97.3464 11.816C97.3464 9.992 98.3424 9.08 100.334 9.08C102.35 9.08 103.358 9.992 103.358 11.816C103.358 13.616 102.35 14.516 100.334 14.516ZM114.662 35.288C111.83 35.288 109.73 34.532 108.362 33.02C106.994 31.508 106.31 29.228 106.31 26.18C106.31 23.108 107.066 20.768 108.578 19.16C110.114 17.528 112.31 16.712 115.166 16.712C118.022 16.712 120.134 17.432 121.502 18.872C122.894 20.312 123.59 22.568 123.59 25.64C123.59 28.688 122.81 31.064 121.25 32.768C119.714 34.448 117.518 35.288 114.662 35.288ZM111.494 25.856C111.494 29.696 112.646 31.616 114.95 31.616C116.126 31.616 116.99 31.184 117.542 30.32C118.118 29.432 118.406 27.992 118.406 26C118.406 22.256 117.23 20.384 114.878 20.384C113.726 20.384 112.874 20.804 112.322 21.644C111.77 22.46 111.494 23.864 111.494 25.856Z" fill="white"/>
<path d="M13.248 64.48H11.088V70.144C13.424 70.656 14.88 71.28 15.456 72.016L14.976 76H2.016L1.536 72.016C1.952 71.472 2.832 70.944 4.176 70.432V48.496C2.864 48.016 1.984 47.472 1.536 46.864L2.016 42.88H14.736C19.184 42.944 22.496 43.76 24.672 45.328C26.88 46.864 27.984 49.616 27.984 53.584C27.984 60.848 23.072 64.48 13.248 64.48ZM13.968 48.112H11.088V59.248H14.304C16.48 59.248 18.096 58.816 19.152 57.952C20.24 57.088 20.784 55.6 20.784 53.488C20.784 51.344 20.192 49.92 19.008 49.216C17.856 48.48 16.176 48.112 13.968 48.112ZM56.6134 52.576C56.6134 54.752 55.9254 56.576 54.5494 58.048C53.2054 59.52 51.5094 60.64 49.4614 61.408C51.0614 62.08 52.1174 62.896 52.6294 63.856L56.1334 70.528C57.6374 71.04 58.6614 71.632 59.2054 72.304L58.7254 76H50.6134L45.0934 64.24C44.5814 63.056 43.9894 62.464 43.3174 62.464H40.1974V70.144C42.5334 70.656 43.9894 71.28 44.5654 72.016L44.0854 76H31.1254L30.6454 72.016C31.0614 71.472 31.9414 70.944 33.2854 70.432V48.496C31.9734 48.016 31.0934 47.472 30.6454 46.864L31.1254 42.88H43.3654C47.8454 42.944 51.1734 43.664 53.3494 45.04C55.5254 46.416 56.6134 48.928 56.6134 52.576ZM43.0294 48.112H40.1974V57.232H42.9334C45.1094 57.232 46.7254 56.912 47.7814 56.272C48.8694 55.6 49.4134 54.416 49.4134 52.72C49.4134 51.024 48.8694 49.84 47.7814 49.168C46.6934 48.464 45.1094 48.112 43.0294 48.112ZM69.138 42.736C70.002 42.736 70.882 42.784 71.778 42.88V42.928L71.826 42.88V70.432C73.106 70.944 73.986 71.472 74.466 72.016L73.986 76H61.506L61.026 72.016C61.602 71.312 62.898 70.704 64.914 70.192V49.168C63.122 48.976 61.682 48.64 60.594 48.16V44.512C63.282 43.328 66.13 42.736 69.138 42.736ZM108.579 57.904C108.579 56.624 108.691 54.64 108.915 51.952L109.011 50.8L108.531 50.752C107.795 53.472 107.155 55.632 106.611 57.232L100.227 76H93.8426L87.1226 57.232C86.5146 55.792 85.9706 54 85.4906 51.856L85.2026 50.752L84.7226 50.8C85.0106 53.648 85.1546 56.016 85.1546 57.904V70.528C86.3386 70.976 87.2186 71.568 87.7946 72.304L87.3146 76H77.9066L77.4266 72.304C78.0026 71.568 78.8826 70.976 80.0666 70.528V48.352C78.7546 47.872 77.8426 47.28 77.3306 46.576L77.8106 42.88H88.7546L95.7626 62.224C96.6586 64.336 97.2346 66.272 97.4906 68.032L97.6346 68.848H98.3066C98.4346 66.896 99.0106 64.688 100.035 62.224L106.707 42.88H117.459L117.939 46.576C117.427 47.28 116.515 47.872 115.203 48.352V70.336C116.451 70.816 117.331 71.376 117.843 72.016L117.363 76H106.419L105.939 72.064C106.451 71.424 107.331 70.864 108.579 70.384V57.904ZM143.726 76H121.454L120.974 72.016C121.39 71.472 122.27 70.944 123.614 70.432V48.496C122.302 48.016 121.422 47.472 120.974 46.864L121.454 42.88H143.342V51.232L139.79 51.664C139.054 51.024 138.462 49.84 138.014 48.112H130.526V56.368H137.198C137.582 55.408 137.982 54.736 138.398 54.352L141.422 54.688V63.232L138.398 63.616C137.982 63.296 137.582 62.624 137.198 61.6H130.526V70.768H138.398C138.814 69.104 139.406 67.92 140.174 67.216L143.726 67.648V76Z" fill="#F7BB59"/>
</svg>
